<svg width="751" height="451" viewBox="0 0 751 451" fill="none" xmlns="http://www.w3.org/2000/svg"><g clip-path="url(#clip0_5240_164626)"><path d="M.5 12.5c0-6.627 5.373-12 12-12h726c6.627 0 12 5.373 12 12v426c0 6.627-5.373 12-12 12h-726c-6.627 0-12-5.373-12-12v-426z" fill="#F8F8F8"/><path d="M683.179 237.395c-17.575 0-31.822-14.308-31.822-31.958v-82.873c0-17.65 14.247-31.958 31.822-31.958 17.574 0 31.821 14.308 31.821 31.958v82.873c0 17.65-14.247 31.958-31.821 31.958z" fill="#E2F1FF"/><path fill-rule="evenodd" clip-rule="evenodd" d="M650 204.011v-81.022c0-18.495 14.998-33.489 33.5-33.489 18.502 0 33.5 14.994 33.5 33.489v81.022c0 18.495-14.998 33.489-33.5 33.489-18.502 0-33.5-14.994-33.5-33.489zm2.246 0c0 17.255 13.993 31.244 31.254 31.244 17.261 0 31.254-13.989 31.254-31.244v-81.022c0-17.255-13.993-31.244-31.254-31.244-17.261 0-31.254 13.989-31.254 31.244v81.022z" fill="#000"/><path d="M66.5 236.807c-17.397 0-31.5-14.164-31.5-31.635v-82.037C35 105.664 49.103 91.5 66.5 91.5S98 105.664 98 123.135v82.037c0 17.471-14.103 31.635-31.5 31.635z" fill="#E2F1FF"/><path fill-rule="evenodd" clip-rule="evenodd" d="M33 204.011v-81.022C33 104.494 47.998 89.5 66.5 89.5c18.501 0 33.5 14.994 33.5 33.489v81.022c0 18.495-14.999 33.489-33.5 33.489-18.502 0-33.5-14.994-33.5-33.489zm2.246 0c0 17.255 13.993 31.244 31.254 31.244 17.261 0 31.254-13.989 31.254-31.244v-81.022c0-17.255-13.993-31.244-31.254-31.244-17.261 0-31.254 13.989-31.254 31.244v81.022z" fill="#000"/><path d="M191 64c0-7.456 6.039-13.5 13.488-13.5h341.024C552.961 50.5 559 56.544 559 64v198c0 7.456-6.039 13.5-13.488 13.5H204.488c-7.449 0-13.488-6.044-13.488-13.5V64z" fill="#C3DCF4"/><path fill-rule="evenodd" clip-rule="evenodd" d="M201.151 275.084l.555-2.181c.887.226 1.819.347 2.782.347h3.875v2.25h-3.875c-1.152 0-2.27-.144-3.337-.416zm340.486.416v-2.25h3.875c.963 0 1.895-.121 2.782-.347l.555 2.181a13.493 13.493 0 01-3.337.416h-3.875zm10.759-1.888l-1.149-1.934a11.318 11.318 0 003.935-3.938l1.932 1.15a13.562 13.562 0 01-4.718 4.722zM559 67.937h-2.248V64c0-.964-.121-1.897-.346-2.785l2.178-.555c.272 1.068.416 2.187.416 3.34v3.937zm-1.886-10.827l-1.932 1.15a11.318 11.318 0 00-3.935-3.938l1.149-1.934a13.564 13.564 0 014.718 4.722zM208.363 50.5h-3.875c-1.152 0-2.27.145-3.337.416l.555 2.18a11.254 11.254 0 012.782-.346h3.875V50.5zm-10.759 1.888l1.149 1.934a11.318 11.318 0 00-3.935 3.938l-1.932-1.15a13.564 13.564 0 014.718-4.722zM191 258.063h2.248V262c0 .964.121 1.897.346 2.785l-2.178.555A13.517 13.517 0 01191 262v-3.937zm6.604 15.549l1.149-1.934a11.318 11.318 0 01-3.935-3.938l-1.932 1.15a13.562 13.562 0 004.718 4.722zM191 253.563h2.248v-7.875H191v7.875zm0-12.375h2.248v-7.875H191v7.875zm0-12.375h2.248v-7.875H191v7.875zm0-12.375h2.248v-7.875H191v7.875zm0-12.375h2.248v-7.875H191v7.875zm0-12.375h2.248v-7.875H191v7.875zm0-12.375h2.248v-7.875H191v7.875zm0-12.375h2.248v-7.876H191v7.876zm0-12.376h2.248v-7.875H191v7.875zm0-12.375h2.248v-7.875H191v7.875zm0-12.375h2.248v-7.875H191v7.875zm0-12.375h2.248v-7.875H191v7.875zm0-12.375h2.248v-7.875H191v7.875zm0-12.375h2.248v-7.875H191v7.875zm0-12.375h2.248v-7.875H191v7.875zm0-12.375h2.248V64c0-.964.121-1.897.346-2.785l-2.178-.555A13.516 13.516 0 00191 64v3.937zM212.792 50.5v2.25h7.751V50.5h-7.751zm12.179 0v2.25h7.751V50.5h-7.751zm12.18 0v2.25h7.75V50.5h-7.75zm12.179 0v2.25h7.751V50.5h-7.751zm12.18 0v2.25h7.75V50.5h-7.75zm12.179 0v2.25h7.751V50.5h-7.751zm12.18 0v2.25h7.75V50.5h-7.75zm12.179 0v2.25h7.751V50.5h-7.751zm12.18 0v2.25h7.75V50.5h-7.75zm12.179 0v2.25h7.751V50.5h-7.751zm12.179 0v2.25h7.751V50.5h-7.751zm12.18 0v2.25h7.75V50.5h-7.75zm12.179 0v2.25h7.751V50.5h-7.751zm12.18 0v2.25h7.75V50.5h-7.75zm12.179 0v2.25h7.751V50.5h-7.751zm12.18 0v2.25h7.75V50.5h-7.75zm12.179 0v2.25h7.751V50.5h-7.751zm12.179 0v2.25h7.751V50.5h-7.751zm12.18 0v2.25h7.75V50.5h-7.75zm12.179 0v2.25h7.751V50.5h-7.751zm12.18 0v2.25h7.75V50.5h-7.75zm12.179 0v2.25h7.751V50.5h-7.751zm12.18 0v2.25h7.75V50.5h-7.75zm12.179 0v2.25h7.751V50.5h-7.751zm12.179 0v2.25h7.751V50.5h-7.751zm12.18 0v2.25h7.75V50.5h-7.75zm12.179 0v2.25h7.751V50.5h-7.751zm12.18 0v2.25h3.875c.963 0 1.895.12 2.782.347l.555-2.18a13.503 13.503 0 00-3.337-.417h-3.875zM559 72.437h-2.248v7.875H559v-7.875zm0 12.375h-2.248v7.875H559v-7.875zm0 12.375h-2.248v7.875H559v-7.875zm0 12.375h-2.248v7.875H559v-7.875zm0 12.375h-2.248v7.875H559v-7.875zm0 12.375h-2.248v7.875H559v-7.875zm0 12.375h-2.248v7.875H559v-7.875zm0 12.375h-2.248v7.876H559v-7.876zm0 12.376h-2.248v7.875H559v-7.875zm0 12.375h-2.248v7.875H559v-7.875zm0 12.375h-2.248v7.875H559v-7.875zm0 12.375h-2.248v7.875H559v-7.875zm0 12.375h-2.248v7.875H559v-7.875zm0 12.375h-2.248v7.875H559v-7.875zm0 12.375h-2.248v7.875H559v-7.875zm0 12.375h-2.248V262c0 .964-.121 1.897-.346 2.785l2.178.555c.272-1.068.416-2.187.416-3.34v-3.937zM537.208 275.5v-2.25h-7.751v2.25h7.751zm-12.179 0v-2.25h-7.751v2.25h7.751zm-12.18 0v-2.25h-7.75v2.25h7.75zm-12.179 0v-2.25h-7.751v2.25h7.751zm-12.18 0v-2.25h-7.75v2.25h7.75zm-12.179 0v-2.25h-7.751v2.25h7.751zm-12.18 0v-2.25h-7.75v2.25h7.75zm-12.179 0v-2.25h-7.751v2.25h7.751zm-12.18 0v-2.25h-7.75v2.25h7.75zm-12.179 0v-2.25h-7.751v2.25h7.751zm-12.179 0v-2.25h-7.751v2.25h7.751zm-12.18 0v-2.25h-7.75v2.25h7.75zm-12.179 0v-2.25h-7.751v2.25h7.751zm-12.18 0v-2.25h-7.75v2.25h7.75zm-12.179 0v-2.25h-7.751v2.25h7.751zm-12.18 0v-2.25h-7.75v2.25h7.75zm-12.179 0v-2.25h-7.751v2.25h7.751zm-12.179 0v-2.25h-7.751v2.25h7.751zm-12.18 0v-2.25h-7.75v2.25h7.75zm-12.179 0v-2.25h-7.751v2.25h7.751zm-12.18 0v-2.25h-7.75v2.25h7.75zm-12.179 0v-2.25h-7.751v2.25h7.751zm-12.18 0v-2.25h-7.75v2.25h7.75zm-12.179 0v-2.25h-7.751v2.25h7.751zm-12.179 0v-2.25h-7.751v2.25h7.751zm-12.18 0v-2.25h-7.75v2.25h7.75zm-12.179 0v-2.25h-7.751v2.25h7.751z" fill="#000"/><path d="M272 150.111c0-7.517 6.005-13.611 13.413-13.611h52.174c7.408 0 13.413 6.094 13.413 13.611v25.778c0 7.517-6.005 13.611-13.413 13.611h-52.174c-7.408 0-13.413-6.094-13.413-13.611v-25.778zm127 0c0-7.517 6.005-13.611 13.413-13.611h52.174c7.408 0 13.413 6.094 13.413 13.611v25.778c0 7.517-6.005 13.611-13.413 13.611h-52.174c-7.408 0-13.413-6.094-13.413-13.611v-25.778z" fill="#E2F1FF"/><path d="M263 163c0 39.488-32.235 71.5-72 71.5s-72-32.012-72-71.5 32.235-71.5 72-71.5 72 32.012 72 71.5z" fill="#C3DCF4"/><path fill-rule="evenodd" clip-rule="evenodd" d="M262.891 166.971l-2.25-.123a70.079 70.079 0 000-7.696l2.25-.123a72.629 72.629 0 010 7.942zm-.394-12.465l-2.237.263a68.699 68.699 0 00-1.336-7.573l2.194-.508a70.899 70.899 0 011.379 7.818zm-2.559-12.201l-2.157.647a68.312 68.312 0 00-2.648-7.223l2.071-.882a70.656 70.656 0 012.734 7.458zm-4.668-11.57a71.548 71.548 0 00-4.003-6.871l-1.885 1.227a69.015 69.015 0 013.878 6.655l2.01-1.011zm-6.627-10.585l-1.803 1.342a69.782 69.782 0 00-4.981-5.889l1.643-1.532a72.044 72.044 0 015.141 6.079zm-8.372-9.287l-1.542 1.631a70.225 70.225 0 00-5.931-4.947l1.352-1.79a72.414 72.414 0 016.121 5.106zm-9.862-7.711l-1.234 1.871a69.847 69.847 0 00-6.702-3.85l1.018-1.996a72.084 72.084 0 016.918 3.975zm-11.059-5.896l-.888 2.056a69.5 69.5 0 00-7.274-2.63l.651-2.141a71.763 71.763 0 017.511 2.715zm-11.924-3.887l-.512 2.179a69.865 69.865 0 00-7.626-1.327l.265-2.222c2.672.314 5.299.774 7.873 1.37zm-12.428-1.76l-.123 2.233a71.375 71.375 0 00-7.75 0l-.123-2.234a73.568 73.568 0 017.996 0zm-12.551.39l.265 2.222c-2.589.304-5.133.75-7.626 1.327l-.512-2.179a72.208 72.208 0 017.873-1.37zm-12.286 2.542l.651 2.142a69.5 69.5 0 00-7.274 2.63l-.888-2.057a71.763 71.763 0 017.511-2.715zm-11.652 4.636l1.018 1.996a69.847 69.847 0 00-6.702 3.85l-1.234-1.871a72.084 72.084 0 016.918-3.975zm-10.659 6.58l1.352 1.79a70.225 70.225 0 00-5.931 4.947l-1.542-1.631a72.414 72.414 0 016.121-5.106zm-9.352 8.314l1.643 1.532a69.782 69.782 0 00-4.981 5.889l-1.803-1.342a72.044 72.044 0 015.141-6.079zm-7.765 9.793l1.885 1.227a69.015 69.015 0 00-3.878 6.655l-2.01-1.011a71.548 71.548 0 014.003-6.871zm-5.937 10.983l2.071.882a68.312 68.312 0 00-2.648 7.223l-2.157-.647a70.656 70.656 0 012.734-7.458zm-3.914 11.841l2.194.508a68.699 68.699 0 00-1.336 7.573l-2.237-.263a70.899 70.899 0 011.379-7.818zm-1.773 12.341a72.629 72.629 0 000 7.942l2.25-.123a70.079 70.079 0 010-7.696l-2.25-.123zm.394 12.465l2.237-.263c.306 2.57.755 5.097 1.336 7.573l-2.194.508a70.899 70.899 0 01-1.379-7.818zm2.559 12.201l2.157-.647a68.312 68.312 0 002.648 7.223l-2.071.882a70.656 70.656 0 01-2.734-7.458zm4.668 11.57l2.01-1.011a69.015 69.015 0 003.878 6.655l-1.885 1.227a71.548 71.548 0 01-4.003-6.871zm6.627 10.585l1.803-1.342a69.782 69.782 0 004.981 5.889l-1.643 1.532a72.044 72.044 0 01-5.141-6.079zm8.372 9.287l1.542-1.631a70.225 70.225 0 005.931 4.947l-1.352 1.79a72.414 72.414 0 01-6.121-5.106zm9.862 7.711a72.018 72.018 0 006.918 3.975l1.018-1.996a69.847 69.847 0 01-6.702-3.85l-1.234 1.871zm11.059 5.896l.888-2.056a69.45 69.45 0 007.274 2.629l-.651 2.142a71.603 71.603 0 01-7.511-2.715zm11.924 3.887l.512-2.179a69.746 69.746 0 007.626 1.327l-.265 2.222a72.305 72.305 0 01-7.873-1.37zm12.428 1.761l.123-2.234a72.094 72.094 0 007.75 0l.123 2.234a73.57 73.57 0 01-7.996 0zm12.551-.391l-.265-2.222a69.787 69.787 0 007.626-1.327l.512 2.179a72.305 72.305 0 01-7.873 1.37zm12.286-2.542a71.603 71.603 0 007.511-2.715l-.888-2.056a69.45 69.45 0 01-7.274 2.629l.651 2.142zm11.652-4.636a72.018 72.018 0 006.918-3.975l-1.234-1.871a69.847 69.847 0 01-6.702 3.85l1.018 1.996zm10.659-6.58l-1.352-1.79a70.225 70.225 0 005.931-4.947l1.542 1.631a72.414 72.414 0 01-6.121 5.106zm9.352-8.314l-1.643-1.532a69.782 69.782 0 004.981-5.889l1.803 1.342a72.044 72.044 0 01-5.141 6.079zm7.765-9.793l-1.885-1.227a69.015 69.015 0 003.878-6.655l2.01 1.011a71.548 71.548 0 01-4.003 6.871zm5.937-10.983l-2.071-.882a68.312 68.312 0 002.648-7.223l2.157.647a70.656 70.656 0 01-2.734 7.458zm3.914-11.841l-2.194-.508a68.699 68.699 0 001.336-7.573l2.237.263a70.899 70.899 0 01-1.379 7.818z" fill="#000"/><path d="M631 163c0 39.488-32.235 71.5-72 71.5s-72-32.012-72-71.5 32.235-71.5 72-71.5 72 32.012 72 71.5z" fill="#C3DCF4"/><path fill-rule="evenodd" clip-rule="evenodd" d="M630.891 166.971l-2.25-.123a70.079 70.079 0 000-7.696l2.25-.123a72.629 72.629 0 010 7.942zm-.394-12.465l-2.237.263a68.699 68.699 0 00-1.336-7.573l2.194-.508a70.899 70.899 0 011.379 7.818zm-2.559-12.201l-2.157.647a68.312 68.312 0 00-2.648-7.223l2.071-.882a70.656 70.656 0 012.734 7.458zm-4.668-11.57a71.548 71.548 0 00-4.003-6.871l-1.885 1.227a69.015 69.015 0 013.878 6.655l2.01-1.011zm-6.627-10.585l-1.803 1.342a69.782 69.782 0 00-4.981-5.889l1.643-1.532a72.044 72.044 0 015.141 6.079zm-8.372-9.287l-1.542 1.631a70.225 70.225 0 00-5.931-4.947l1.352-1.79a72.414 72.414 0 016.121 5.106zm-9.862-7.711l-1.234 1.871a69.847 69.847 0 00-6.702-3.85l1.018-1.996a72.084 72.084 0 016.918 3.975zm-11.059-5.896l-.888 2.056a69.5 69.5 0 00-7.274-2.63l.651-2.141a71.763 71.763 0 017.511 2.715zm-11.924-3.887l-.512 2.179a69.865 69.865 0 00-7.626-1.327l.265-2.222c2.672.314 5.299.774 7.873 1.37zm-12.428-1.76l-.123 2.233a71.375 71.375 0 00-7.75 0l-.123-2.234a73.568 73.568 0 017.996 0zm-12.551.39l.265 2.222c-2.589.304-5.133.75-7.626 1.327l-.512-2.179a72.208 72.208 0 017.873-1.37zm-12.286 2.542l.651 2.142a69.5 69.5 0 00-7.274 2.63l-.888-2.057a71.763 71.763 0 017.511-2.715zm-11.652 4.636l1.018 1.996a69.847 69.847 0 00-6.702 3.85l-1.234-1.871a72.084 72.084 0 016.918-3.975zm-10.659 6.58l1.352 1.79a70.225 70.225 0 00-5.931 4.947l-1.542-1.631a72.414 72.414 0 016.121-5.106zm-9.352 8.314l1.643 1.532a69.782 69.782 0 00-4.981 5.889l-1.803-1.342a72.044 72.044 0 015.141-6.079zm-7.765 9.793l1.885 1.227a69.015 69.015 0 00-3.878 6.655l-2.01-1.011a71.548 71.548 0 014.003-6.871zm-5.937 10.983l2.071.882a68.312 68.312 0 00-2.648 7.223l-2.157-.647a70.656 70.656 0 012.734-7.458zm-3.914 11.841l2.194.508a68.699 68.699 0 00-1.336 7.573l-2.237-.263a70.899 70.899 0 011.379-7.818zm-1.773 12.341a72.629 72.629 0 000 7.942l2.25-.123a70.079 70.079 0 010-7.696l-2.25-.123zm.394 12.465l2.237-.263c.306 2.57.755 5.097 1.336 7.573l-2.194.508a70.899 70.899 0 01-1.379-7.818zm2.559 12.201l2.157-.647a68.312 68.312 0 002.648 7.223l-2.071.882a70.656 70.656 0 01-2.734-7.458zm4.668 11.57l2.01-1.011a69.015 69.015 0 003.878 6.655l-1.885 1.227a71.548 71.548 0 01-4.003-6.871zm6.627 10.585l1.803-1.342a69.782 69.782 0 004.981 5.889l-1.643 1.532a72.044 72.044 0 01-5.141-6.079zm8.372 9.287l1.542-1.631a70.225 70.225 0 005.931 4.947l-1.352 1.79a72.414 72.414 0 01-6.121-5.106zm9.862 7.711a72.018 72.018 0 006.918 3.975l1.018-1.996a69.847 69.847 0 01-6.702-3.85l-1.234 1.871zm11.059 5.896l.888-2.056a69.45 69.45 0 007.274 2.629l-.651 2.142a71.603 71.603 0 01-7.511-2.715zm11.924 3.887l.512-2.179a69.746 69.746 0 007.626 1.327l-.265 2.222a72.305 72.305 0 01-7.873-1.37zm12.428 1.761l.123-2.234a72.094 72.094 0 007.75 0l.123 2.234a73.57 73.57 0 01-7.996 0zm12.551-.391l-.265-2.222a69.787 69.787 0 007.626-1.327l.512 2.179a72.305 72.305 0 01-7.873 1.37zm12.286-2.542a71.603 71.603 0 007.511-2.715l-.888-2.056a69.45 69.45 0 01-7.274 2.629l.651 2.142zm11.652-4.636a72.018 72.018 0 006.918-3.975l-1.234-1.871a69.847 69.847 0 01-6.702 3.85l1.018 1.996zm10.659-6.58l-1.352-1.79a70.225 70.225 0 005.931-4.947l1.542 1.631a72.414 72.414 0 01-6.121 5.106zm9.352-8.314l-1.643-1.532a69.782 69.782 0 004.981-5.889l1.803 1.342a72.044 72.044 0 01-5.141 6.079zm7.765-9.793l-1.885-1.227a69.015 69.015 0 003.878-6.655l2.01 1.011a71.548 71.548 0 01-4.003 6.871zm5.937-10.983l-2.071-.882a68.312 68.312 0 002.648-7.223l2.157.647a70.656 70.656 0 01-2.734 7.458zm3.914-11.841l-2.194-.508a68.699 68.699 0 001.336-7.573l2.237.263a70.899 70.899 0 01-1.379 7.818z" fill="#000"/><mask id="a" style="mask-type:alpha" maskUnits="userSpaceOnUse" x="558" y="91" width="73" height="144"><path d="M558.986 91.286h71.791v143.58h-71.791V91.286z" fill="#D9D9D9"/></mask><g mask="url(#a)"><path fill-rule="evenodd" clip-rule="evenodd" d="M489.443 163.5c0 38.408 31.136 69.544 69.544 69.544s69.544-31.136 69.544-69.544-31.136-69.544-69.544-69.544-69.544 31.136-69.544 69.544zm-2.246 0c0 39.648 32.141 71.79 71.79 71.79 39.649 0 71.79-32.142 71.79-71.79 0-39.649-32.141-71.79-71.79-71.79-39.649 0-71.79 32.141-71.79 71.79z" fill="#000"/></g><mask id="b" style="mask-type:alpha" maskUnits="userSpaceOnUse" x="119" y="91" width="73" height="144"><path d="M191.244 234.866h-71.791V91.286h71.791v143.58z" fill="#D9D9D9"/></mask><g mask="url(#b)"><path fill-rule="evenodd" clip-rule="evenodd" d="M260.787 163.076c0-38.408-31.136-69.544-69.544-69.544S121.7 124.668 121.7 163.076s31.135 69.544 69.543 69.544 69.544-31.136 69.544-69.544zm2.247 0c0-39.649-32.142-71.79-71.791-71.79-39.648 0-71.79 32.141-71.79 71.79 0 39.649 32.142 71.79 71.79 71.79 39.649 0 71.791-32.141 71.791-71.79z" fill="#000"/></g><path fill-rule="evenodd" clip-rule="evenodd" d="M120 164.5H98v-3h22v3zm532.213 0H629v-3h23.213v3zM261 163c0-.828.504-1.5 1.125-1.5h3.991v3h-3.991c-.621 0-1.125-.672-1.125-1.5zm17.657 1.5h-7.981v-3h7.981v3zm12.542 0h-7.981v-3h7.981v3zm12.542 0h-7.981v-3h7.981v3zm12.541 0h-7.981v-3h7.981v3zm12.542 0h-7.981v-3h7.981v3zm12.542 0h-7.981v-3h7.981v3zm12.541 0h-7.981v-3h7.981v3zm12.542 0h-7.981v-3h7.981v3zm12.542 0h-7.982v-3h7.982v3zm12.541 0h-7.981v-3h7.981v3zm12.542 0h-7.981v-3h7.981v3zm12.541 0h-7.981v-3h7.981v3zm12.542 0h-7.981v-3h7.981v3zm12.542 0h-7.981v-3h7.981v3zm12.541 0h-7.981v-3h7.981v3zm12.542 0h-7.981v-3h7.981v3zm12.542 0h-7.981v-3h7.981v3zm8.551 0h-3.991v-3h3.991c.621 0 1.125.672 1.125 1.5s-.504 1.5-1.125 1.5zM558 92.5c.552 0 1 .502 1 1.12v4.072h-2v-4.071c0-.62.448-1.121 1-1.121zm-1 17.988v-8.143h2v8.143h-2zm0 12.797v-8.144h2v8.144h-2zm0 12.796v-8.143h2v8.143h-2zm0 12.796v-8.143h2v8.143h-2zm0 12.796v-8.143h2v8.143h-2zm0 12.797v-8.143h2v8.143h-2zm0 12.796v-8.143h2v8.143h-2zm0 12.796v-8.143h2v8.143h-2zm0 12.797v-8.144h2v8.144h-2zm0 12.796v-8.143h2v8.143h-2zm0 8.725v-4.072h2v4.072c0 .618-.448 1.12-1 1.12s-1-.502-1-1.12z" fill="#000"/><path d="M120.945 188.075a1.548 1.548 0 01-2.02-1.763l1.726-8.789a1.548 1.548 0 012.537-.868l6.75 5.886a1.549 1.549 0 01-.516 2.632l-8.477 2.902zM39.414 386.874a1.378 1.378 0 01-2.37.285l-4.783-6.38a1.378 1.378 0 01.937-2.195l7.917-.956a1.378 1.378 0 011.433 1.91l-3.134 7.336zM50.73 362.25a1.378 1.378 0 012.37-.285l4.784 6.38a1.378 1.378 0 01-.938 2.195l-7.916.956a1.378 1.378 0 01-1.433-1.91l3.133-7.336z" fill="#000"/><path fill-rule="evenodd" clip-rule="evenodd" d="M57.32 382.938c-5.922 3.038-13.008 3.012-18.933.002l.905-1.783c5.362 2.723 11.772 2.743 17.115.002a1 1 0 01.913 1.779zm-11.288-16.505a18.958 18.958 0 00-5.632-.006l-.296-1.978a20.997 20.997 0 016.227.006l-.299 1.978zm-8.769.743c-.887.296-1.757.659-2.6 1.092l-.913-1.78a20.5 20.5 0 012.882-1.209l.631 1.897zm14.514 1.094a18.8 18.8 0 00-2.606-1.087l.63-1.898c.983.326 1.947.727 2.882 1.202l-.906 1.783zm-18.681-25.005H37.7v2h-4.604v-2zm15.933 2H41.82v-2h7.21v2zm4.12 0v-2h4.605v2h-4.605z" fill="#000"/><path d="M486.211 180.844a1.548 1.548 0 01-1.834-1.957l2.598-8.572a1.548 1.548 0 012.611-.61l6.127 6.534a1.548 1.548 0 01-.778 2.566l-8.724 2.039zM171.053 90.736a1.548 1.548 0 011.897-1.896l8.651 2.32a1.548 1.548 0 01.694 2.59l-6.332 6.334a1.549 1.549 0 01-2.591-.694l-2.319-8.654zm369.51 0a1.548 1.548 0 011.896-1.896l8.651 2.32a1.548 1.548 0 01.694 2.59l-6.332 6.334a1.548 1.548 0 01-2.59-.694l-2.319-8.654zM206.771 226.552a1.548 1.548 0 00-2.611-.611l-6.127 6.534a1.548 1.548 0 00.777 2.566l8.721 2.042a1.548 1.548 0 001.834-1.956l-2.594-8.575zm365.512 0a1.549 1.549 0 00-2.612-.611l-6.126 6.534a1.548 1.548 0 00.777 2.566l8.72 2.042a1.548 1.548 0 001.835-1.956l-2.594-8.575zm-321.807-89.297a1.548 1.548 0 00.063 2.681l7.861 4.292a1.548 1.548 0 002.29-1.395l-.21-8.954a1.548 1.548 0 00-2.353-1.286l-7.651 4.662zm372.961 10.556c-1.179.172-1.731 1.556-.993 2.491l5.549 7.031a1.547 1.547 0 002.653-.385l3.318-8.32a1.548 1.548 0 00-1.661-2.105l-8.866 1.288z" fill="#000"/><path d="M258 238.5c0-7.18 5.878-13 13.13-13h208.74c7.252 0 13.13 5.82 13.13 13s-5.878 13-13.13 13H271.13c-7.252 0-13.13-5.82-13.13-13z" fill="#E2F1FF"/><path d="M355 151.5h41v22h-41v-22zm359.5-29c0 17.121-13.879 31-31 31-17.121 0-31-13.879-31-31 0-17.121 13.879-31 31-31 17.121 0 31 13.879 31 31z" fill="#C3DCF4"/><g clip-path="url(#clip1_5240_164626)"><path d="M683.852 108.254c7.894 0 14.292 6.398 14.292 14.292s-6.398 14.292-14.292 14.292-14.291-6.398-14.291-14.292 6.397-14.292 14.291-14.292zm0 26.797c.933 0 2.256-.804 3.456-3.199.553-1.105 1.016-2.489 1.295-3.947h-9.552c.329 1.458.793 2.842 1.346 3.947 1.2 2.395 2.523 3.199 3.455 3.199zm-5.119-8.932h10.239c.156-1.128.24-2.328.24-3.573s-.084-2.445-.24-3.573h-10.239a26.164 26.164 0 00-.24 3.573c0 1.245.084 2.445.24 3.573zm9.87-8.932a14.952 14.952 0 00-1.295-3.948c-1.2-2.396-2.523-3.198-3.456-3.198-.932 0-2.255.802-3.455 3.198-.553 1.106-1.017 2.44-1.346 3.948h9.552zm2.121 1.786c.196 1.145.274 2.339.274 3.573s-.078 2.429-.274 3.573h5.114c.341-1.133.519-2.334.519-3.573 0-1.239-.178-2.44-.519-3.573h-5.114zm-2.88-8.281c1.172 1.581 2.099 3.837 2.635 6.495h4.673a12.524 12.524 0 00-7.308-6.495zm-7.983 0a12.537 12.537 0 00-7.31 6.495h4.675c.536-2.658 1.462-4.914 2.635-6.495zm-8.514 11.854c0 1.239.181 2.44.518 3.573h5.065a28.435 28.435 0 01-.224-3.573c0-1.234.079-2.428.224-3.573h-5.065a12.523 12.523 0 00-.518 3.573zm23.805 5.359h-4.673c-.536 2.658-1.463 4.913-2.635 6.493a12.511 12.511 0 007.308-6.493zm-17.926 0h-4.675a12.524 12.524 0 007.31 6.493c-1.173-1.58-2.099-3.835-2.635-6.493z" fill="#000"/></g><path d="M97.5 122.5c0 17.121-13.88 31-31 31-17.12 0-31-13.879-31-31 0-17.121 13.88-31 31-31 17.12 0 31 13.879 31 31z" fill="#C3DCF4"/><g clip-path="url(#clip2_5240_164626)"><path d="M66 108.685c-7.954 0-14.4 6.267-14.4 14 0 7.732 6.446 14 14.4 14 7.953 0 14.4-6.268 14.4-14 0-7.733-6.447-14-14.4-14zm0 26.25a12.77 12.77 0 01-7.155-2.179c.23-2.694 2.53-4.821 5.355-4.821h3.6c2.826 0 5.126 2.129 5.355 4.821A12.794 12.794 0 0166 134.935zm8.758-3.462c-.793-3.03-3.6-5.288-6.958-5.288h-3.6c-3.36 0-6.165 2.258-6.959 5.289-2.364-2.276-3.841-5.344-3.841-8.789 0-6.754 5.653-12.25 12.6-12.25s12.6 5.496 12.6 12.25c0 3.445-1.48 6.513-3.842 8.788zM66 115.685c-2.487 0-4.5 1.957-4.5 4.375 0 2.417 2.013 4.375 4.5 4.375 2.486 0 4.5-1.959 4.5-4.375 0-2.418-2.014-4.375-4.5-4.375zm0 7c-1.491 0-2.7-1.176-2.7-2.625 0-1.45 1.209-2.625 2.7-2.625 1.49 0 2.7 1.177 2.7 2.625 0 1.447-1.21 2.625-2.7 2.625z" fill="#000"/></g><path d="M97 102.5c0 6.075-4.925 11-11 11s-11-4.925-11-11 4.925-11 11-11 11 4.925 11 11z" fill="#3E5FFF"/><path d="M86.5 95.5c-3.591 0-6.5 3.104-6.5 6.931 0 1.52.46 2.924 1.238 4.069l3.12-5.399 1.126 2.046-.31-1.526 1.326-2.387 2.143 3.913-.306-1.508.3-.544 3.125 5.405A7.233 7.233 0 0093 102.431c0-3.827-2.909-6.931-6.5-6.931z" fill="#fff"/><path d="M527.679 345.265h-8.359c-1.813 0-3.49.966-4.397 2.541l-4.182 7.244a5.077 5.077 0 000 5.077l4.182 7.237a5.083 5.083 0 004.397 2.542h8.359a5.071 5.071 0 004.398-2.542l4.182-7.237a5.077 5.077 0 000-5.077l-4.182-7.244a5.085 5.085 0 00-4.398-2.541zm107.5-75.767h-8.359c-1.813 0-3.49.966-4.397 2.541l-4.182 7.243a5.078 5.078 0 000 5.078l4.182 7.237a5.083 5.083 0 004.397 2.542h8.359a5.073 5.073 0 004.398-2.542l4.182-7.237a5.078 5.078 0 000-5.078l-4.182-7.243a5.085 5.085 0 00-4.398-2.541zm-519.248-18.74h-8.359a5.07 5.07 0 00-4.397 2.542l-4.182 7.243a5.077 5.077 0 000 5.077l4.182 7.238a5.085 5.085 0 004.397 2.541h8.359a5.072 5.072 0 004.398-2.541l4.182-7.238a5.077 5.077 0 000-5.077l-4.182-7.243a5.084 5.084 0 00-4.398-2.542zM49.715 397.609h-8.36c-1.813 0-3.49.967-4.397 2.542l-4.182 7.243a5.079 5.079 0 000 5.078l4.182 7.237a5.085 5.085 0 004.398 2.542h8.359c1.813 0 3.49-.967 4.397-2.542l4.182-7.237a5.079 5.079 0 000-5.078l-4.182-7.243a5.085 5.085 0 00-4.397-2.542zM599.06 50.858h-8.359c-1.814 0-3.49.967-4.397 2.542l-4.182 7.243a5.078 5.078 0 000 5.078l4.182 7.237a5.084 5.084 0 004.397 2.542h8.359a5.073 5.073 0 004.398-2.542l4.182-7.237a5.078 5.078 0 000-5.078l-4.182-7.243a5.085 5.085 0 00-4.398-2.542z" fill="#FF7059"/><path d="M327.834 231.936h1.162v7.308h-1.162v-7.308zm.84 3.094h2.198v.966h-2.198v-.966zm-7.63 4.83h7.952v4.564h-7.952v-4.564zm6.818.924h-5.684v2.702h5.684v-2.702zm-5.152-8.106c1.904 0 3.304 1.232 3.304 2.996 0 1.75-1.4 2.968-3.304 2.968s-3.304-1.218-3.304-2.968c0-1.764 1.4-2.996 3.304-2.996zm0 .98c-1.26 0-2.17.826-2.17 2.016s.91 2.002 2.17 2.002c1.26 0 2.17-.812 2.17-2.002 0-1.19-.91-2.016-2.17-2.016zm9.911.126h10.276v.952h-10.276v-.952zm-.56 8.372h11.466v.966h-11.466v-.966zm5.138-2.002h1.148v2.38h-1.148v-2.38zm.56-4.564c2.562 0 4.144.882 4.144 2.408 0 1.526-1.582 2.408-4.144 2.408-2.548 0-4.13-.882-4.13-2.408 0-1.526 1.582-2.408 4.13-2.408zm0 .91c-1.834 0-2.968.56-2.968 1.498s1.134 1.484 2.968 1.484c1.848 0 2.968-.546 2.968-1.484s-1.12-1.498-2.968-1.498zm-.56-4.354h1.148v2.226h-1.148v-2.226zm11.017 7.336h1.162v2.058h-1.162v-2.058zm5.32-7.546h1.162v12.656h-1.162v-12.656zm.784 5.376h2.338v.98h-2.338v-.98zm-9.366 4.872l-.168-.966c2.268 0 5.362-.028 7.98-.406l.098.868c-2.73.49-5.698.504-7.91.504zm.042-8.722h7.574v.938h-7.574v-.938zm3.794 1.68c1.764 0 2.982.924 2.982 2.338 0 1.428-1.218 2.338-2.982 2.338-1.764 0-2.968-.91-2.968-2.338 0-1.414 1.204-2.338 2.968-2.338zm0 .896c-1.134 0-1.876.574-1.876 1.442s.742 1.442 1.876 1.442 1.89-.574 1.89-1.442-.756-1.442-1.89-1.442zm-.574-4.088h1.162v2.142h-1.162v-2.142zm10.779 4.116h6.104v.952h-6.104v-.952zm2.436.574h1.162v2.534h-1.162v-2.534zm-2.436-3.878h6.02v.952h-4.858v2.772h-1.162v-3.724zm8.008-.826h1.162v9.464h-1.162v-9.464zm-7.014 11.424h8.596v.952h-8.596v-.952zm0-2.576h1.148v2.982h-1.148v-2.982zm-1.96-.98l-.154-.952c2.436 0 5.516-.056 8.12-.364l.07.854c-2.674.392-5.67.462-8.036.462zm17.557-6.486l3.023 8.571h.119l3.023-8.571h1.292l-3.738 10.182h-1.273l-3.739-10.182h1.293zm9.043 10.182v-10.182h3.441c.798 0 1.451.144 1.958.433.511.285.889.671 1.134 1.158.245.487.368 1.031.368 1.631 0 .6-.123 1.145-.368 1.635a2.737 2.737 0 01-1.124 1.174c-.507.288-1.156.432-1.949.432h-2.465v-1.094h2.426c.547 0 .986-.094 1.317-.283.332-.189.572-.444.721-.766.153-.324.229-.691.229-1.098 0-.408-.076-.773-.229-1.094a1.632 1.632 0 00-.726-.756c-.335-.185-.779-.278-1.332-.278h-2.168v9.088h-1.233zm16.961-10.182V243.5h-1.193l-5.549-7.994h-.099v7.994h-1.233v-10.182h1.193l5.568 8.014h.1v-8.014h1.213zm15.14-1.396h1.148v12.684h-1.148v-12.684zm-2.632 4.774h2.8v.966h-2.8v-.966zm-6.062 3.906h.966c2.38 0 3.878-.042 5.656-.378l.112.952c-1.82.322-3.36.392-5.768.392h-.966v-.966zm0-7.518h5.852v.966h-4.704v6.888h-1.148v-7.854zm.854 3.556h4.452v.938h-4.452v-.938zm12.178-4.102h1.162v5.068h-1.162v-5.068zm0 4.438h.98c2.016 0 3.71-.112 5.6-.49l.154.966c-1.96.392-3.696.49-5.754.49h-.98v-.966zm4.928-2.94h3.864v.952h-3.864v-.952zm3.584-2.1h1.162v6.538h-1.162v-6.538zm-6.986 7.126h8.148v3.052h-6.958v1.876h-1.148v-2.758h6.958v-1.218h-7v-.952zm.042 4.424h8.554v.938h-8.554v-.938zm-66.384-160.55h1.12v12.656h-1.12V82.936zm-2.128 5.152h2.436v.952h-2.436v-.952zm-.742-4.872h1.092v11.732h-1.092V83.216zm-6.132 1.246h1.162v7.308h-1.162v-7.308zm0 6.846h.812c1.302 0 2.758-.084 4.41-.406l.126 1.008c-1.722.336-3.178.406-4.536.406h-.812v-1.008zm17.98-6.99V94.5h-1.233V84.318h1.233zm2.472 10.182V84.318h3.441c.799 0 1.451.144 1.959.433.51.285.888.67 1.133 1.158.245.487.368 1.03.368 1.63 0 .6-.123 1.146-.368 1.636a2.735 2.735 0 01-1.123 1.174c-.508.288-1.157.432-1.949.432h-2.466v-1.094h2.426c.547 0 .986-.094 1.317-.283.332-.189.572-.444.721-.766a2.54 2.54 0 00.229-1.098c0-.408-.076-.772-.229-1.094a1.63 1.63 0 00-.726-.756c-.334-.185-.778-.278-1.332-.278h-2.168V94.5h-1.233zm17.36-10.318h1.008v.532c0 2.268-2.408 3.934-4.956 4.368l-.448-.924c2.226-.322 4.396-1.778 4.396-3.444v-.532zm.294 0h.994v.532c0 1.666 2.184 3.122 4.396 3.444l-.434.924c-2.562-.434-4.956-2.1-4.956-4.368v-.532zm-.252 6.58h1.148v4.83h-1.148v-4.83zm-5.11-.616h11.438v.952h-11.438v-.952zm1.064-6.426h9.268v.938h-9.268v-.938zm11.815 9.268h11.466v.966h-11.466v-.966zm5.096-3.066h1.148v3.388h-1.148v-3.388zm-.028-6.146h1.008v.98c0 2.702-2.59 4.788-5.138 5.32l-.49-.966c2.226-.406 4.62-2.268 4.62-4.354v-.98zm.21 0h1.008v.98c0 2.1 2.408 3.948 4.634 4.354l-.504.966c-2.548-.532-5.138-2.618-5.138-5.32v-.98zm-249.67 65.812h.96v10.848h-.96v-10.848zm-4.5 4.14h2.724v.816h-2.724v-.816zm2.316-3.888h.948v10.044h-.948V149.84zm-5.664 7.152h.696c1.692 0 2.712-.048 3.912-.3l.096.828c-1.236.264-2.28.312-4.008.312h-.696v-.84zm0-6.084h4.08v.816h-3.096v5.592h-.984v-6.408zm18.515-1.332h.996v10.872h-.996v-10.872zm-4.728.84c1.608 0 2.76 1.476 2.76 3.78 0 2.316-1.152 3.792-2.76 3.792-1.596 0-2.748-1.476-2.748-3.792 0-2.304 1.152-3.78 2.748-3.78zm0 .9c-1.056 0-1.8 1.128-1.8 2.88 0 1.764.744 2.916 1.8 2.916 1.068 0 1.8-1.152 1.8-2.916 0-1.752-.732-2.88-1.8-2.88zm15.839-1.74h.984v10.872h-.984v-10.872zm-2.256 4.092h2.4v.828h-2.4v-.828zm-5.196 3.348h.828c2.04 0 3.324-.036 4.848-.324l.096.816c-1.56.276-2.88.336-4.944.336h-.828v-.828zm0-6.444h5.016v.828h-4.032v5.904h-.984v-6.732zm.732 3.048h3.816v.804h-3.816v-.804zm9.803 1.008h9.84v.756h-9.84v-.756zm1.164 1.632h7.44v2.316h-6.42v1.272h-.984v-1.956h6.432v-.924h-6.468v-.708zm.036 3.324h7.752v.72h-7.752v-.72zm.048-9.684h7.32v2.256h-6.312v1.176h-.984v-1.848h6.324v-.876h-6.348v-.708zm.024 3.192h7.5v.72h-7.5v-.72zm20.57-3.504h.996v6.264h-.996v-6.264zm.72 2.652h1.884v.828h-1.884v-.828zm-6.54 4.14h6.816v3.912h-6.816v-3.912zm5.844.792h-4.872v2.316h4.872v-2.316zm-4.416-6.948c1.632 0 2.832 1.056 2.832 2.568 0 1.5-1.2 2.544-2.832 2.544s-2.832-1.044-2.832-2.544c0-1.512 1.2-2.568 2.832-2.568zm0 .84c-1.08 0-1.86.708-1.86 1.728s.78 1.716 1.86 1.716 1.86-.696 1.86-1.716-.78-1.728-1.86-1.728zm8.495.108h8.808v.816h-8.808v-.816zm-.48 7.176h9.828v.828h-9.828v-.828zm4.404-1.716h.984v2.04h-.984v-2.04zm.48-3.912c2.196 0 3.552.756 3.552 2.064s-1.356 2.064-3.552 2.064c-2.184 0-3.54-.756-3.54-2.064s1.356-2.064 3.54-2.064zm0 .78c-1.572 0-2.544.48-2.544 1.284s.972 1.272 2.544 1.272c1.584 0 2.544-.468 2.544-1.272s-.96-1.284-2.544-1.284zm-.48-3.732h.984v1.908h-.984v-1.908zm9.443 6.288h.996v1.764h-.996v-1.764zm4.56-6.468h.996v10.848h-.996v-10.848zm.672 4.608h2.004v.84h-2.004v-.84zm-8.028 4.176l-.144-.828c1.944 0 4.596-.024 6.84-.348l.084.744c-2.34.42-4.884.432-6.78.432zm.036-7.476h6.492v.804h-6.492v-.804zm3.252 1.44c1.512 0 2.556.792 2.556 2.004 0 1.224-1.044 2.004-2.556 2.004s-2.544-.78-2.544-2.004c0-1.212 1.032-2.004 2.544-2.004zm0 .768c-.972 0-1.608.492-1.608 1.236s.636 1.236 1.608 1.236c.972 0 1.62-.492 1.62-1.236s-.648-1.236-1.62-1.236zm-.492-3.504h.996v1.836h-.996V149.6zm15.575-.012h.996v10.848h-.996v-10.848zm.756 4.452h2.016v.84h-2.016v-.84zm-8.16-2.724h6.396v.816h-6.396v-.816zm3.24 1.716c1.536 0 2.64 1.032 2.64 2.496s-1.104 2.496-2.64 2.496c-1.524 0-2.64-1.032-2.64-2.496s1.116-2.496 2.64-2.496zm0 .828c-.984 0-1.692.684-1.692 1.668 0 .972.708 1.668 1.692 1.668s1.692-.696 1.692-1.668c0-.984-.708-1.668-1.692-1.668zm-.516-4.14h.996v1.968h-.996v-1.968zm9.695 3.12h7.368v.816h-7.368v-.816zm-1.332 2.268h9.84v.816h-9.84v-.816zm1.332-5.124h.984v3.264h-.984v-3.264zm-.072 9.372h7.5v.816h-7.5v-.816zm0-2.352h.984v2.568h-.984v-2.568zm-71.384 8.769l2.591 7.346h.102l2.591-7.346h1.108l-3.205 8.727h-1.09l-3.205-8.727h1.108zm7.751 8.727v-8.727h2.949c.685 0 1.245.123 1.679.371.438.244.762.575.972.993.21.417.315.883.315 1.397s-.105.982-.315 1.402a2.349 2.349 0 01-.963 1.006c-.435.247-.992.371-1.671.371h-2.113v-.938h2.079c.469 0 .845-.081 1.129-.243.285-.162.49-.38.618-.656.131-.278.196-.592.196-.942 0-.349-.065-.662-.196-.937a1.396 1.396 0 00-.622-.648c-.287-.159-.667-.239-1.142-.239h-1.858v7.79h-1.057zm14.538-8.727v8.727h-1.023l-4.755-6.852h-.086v6.852h-1.056v-8.727h1.022l4.773 6.869h.085v-6.869h1.04zm10.445 2.487h3.024v.816h-3.024v-.816zm-2.616-2.736h.816v1.932c0 2.436-1.284 4.764-3 5.688l-.636-.792c1.596-.792 2.82-2.88 2.82-4.896v-1.932zm.192 0h.804v1.932c0 1.98 1.224 3.948 2.796 4.692l-.588.804c-1.752-.888-3.012-3.12-3.012-5.496v-1.932zm4.956-.948h.984v10.872h-.984v-10.872zm10.967 0h.996v10.872h-.996v-10.872zm-7.26.924h.984v2.868h3.132V165.5h.996v7.332h-5.112V165.5zm.984 3.66v2.856h3.132v-2.856h-3.132zm13.787-3.828h.864v.828c0 2.364-2.196 4.2-4.368 4.692l-.444-.828c1.908-.36 3.948-2.016 3.948-3.864v-.828zm.18 0h.864v.828c0 1.86 2.052 3.504 3.948 3.864l-.444.828c-2.16-.492-4.368-2.316-4.368-4.692v-.828zm-4.524 7.824h9.828v.816h-9.828v-.816zM69.438 405.882v8.727H68.38v-8.727h1.057zm6.892 2.182a1.339 1.339 0 00-.623-1.006c-.363-.239-.81-.358-1.338-.358-.386 0-.724.063-1.014.188a1.625 1.625 0 00-.673.515c-.16.219-.239.468-.239.746 0 .233.055.433.166.601.114.165.259.302.435.413.176.108.36.198.554.269.193.068.37.123.532.166l.887.239c.227.059.48.142.758.247.282.105.55.248.806.43.258.179.471.409.639.69.168.282.251.627.251 1.036 0 .472-.123.898-.37 1.278-.245.381-.603.684-1.074.908-.469.224-1.038.337-1.709.337-.625 0-1.166-.101-1.624-.303a2.588 2.588 0 01-1.073-.844 2.402 2.402 0 01-.44-1.257h1.091c.029.33.14.603.333.818.196.214.443.373.741.478.302.102.625.153.972.153.403 0 .766-.065 1.087-.196a1.86 1.86 0 00.762-.554 1.31 1.31 0 00.282-.835c0-.29-.081-.526-.243-.707a1.786 1.786 0 00-.64-.444 6.777 6.777 0 00-.856-.298l-1.074-.307c-.682-.196-1.221-.476-1.62-.839-.397-.364-.596-.84-.596-1.428 0-.488.132-.915.397-1.278a2.632 2.632 0 011.073-.853 3.635 3.635 0 011.513-.306c.563 0 1.063.101 1.5.302a2.6 2.6 0 011.04.818c.258.347.395.74.41 1.181h-1.024zm2.879 6.545v-8.727h2.949c.684 0 1.244.124 1.679.371.437.244.761.575.971.993.21.417.316.883.316 1.397 0 .515-.105.982-.316 1.402a2.341 2.341 0 01-.963 1.006c-.434.247-.991.371-1.67.371H80.06v-.938h2.08c.469 0 .845-.081 1.13-.243.283-.162.49-.38.617-.656a2.19 2.19 0 00.196-.942 2.16 2.16 0 00-.196-.937 1.397 1.397 0 00-.622-.648c-.287-.159-.668-.239-1.142-.239h-1.858v7.79h-1.057zm8.501-1.193l-.069.46a9.277 9.277 0 01-.221 1.04c-.097.369-.198.717-.303 1.044a30.55 30.55 0 01-.26.78h-.767l.145-.72c.06-.299.12-.632.179-1.002.062-.366.114-.741.153-1.125l.051-.477h1.091zm4.893-6.871h5.376v.816h-5.376v-.816zm2.688 1.536c1.356 0 2.34 1.02 2.34 2.484 0 1.452-.984 2.472-2.34 2.472-1.344 0-2.328-1.02-2.328-2.472 0-1.464.984-2.484 2.328-2.484zm0 .852c-.828 0-1.428.672-1.428 1.632 0 .96.6 1.632 1.428 1.632.84 0 1.452-.672 1.452-1.632 0-.96-.612-1.632-1.452-1.632zm5.556-4.236h.96v10.848h-.96v-10.848zm-1.728 4.56h2.052v.828h-2.052v-.828zm-.588-4.32h.936v10.08h-.936v-10.08zm-3.72.072h.984v2.04h-.984v-2.04zm13.355.816h.96c0 3.132-1.08 6.012-4.896 7.932l-.564-.768c3.348-1.68 4.5-4.092 4.5-7.056v-.108zm-3.912 0h4.512v.804h-4.512v-.804zm3.852 2.688v.756l-4.236.396-.168-.864 4.404-.288zm3.48-3.816h.996v10.848h-.996v-10.848zm-2.484 4.344h2.964v.828h-2.964v-.828zm7.424 4.375l-.068.46a9.536 9.536 0 01-.222 1.04c-.097.369-.197.717-.303 1.044a26.97 26.97 0 01-.26.78h-.767l.145-.72c.06-.299.12-.632.179-1.002.063-.366.114-.741.154-1.125l.051-.477h1.091zm12.814-8.719h.996v10.848h-.996v-10.848zm-3.18 1.164h.984c0 3.144-1.416 5.892-5.04 7.668l-.528-.804c3.132-1.512 4.584-3.816 4.584-6.696v-.168zm-4.092 0h4.524v.816h-4.524v-.816zm15.863 1.416h2.916v.828h-2.916v-.828zm-2.496-2.088c1.62 0 2.796 1.032 2.796 2.52s-1.176 2.508-2.796 2.508c-1.62 0-2.796-1.02-2.796-2.508s1.176-2.52 2.796-2.52zm0 .84c-1.068 0-1.836.684-1.836 1.68 0 .984.768 1.68 1.836 1.68s1.836-.696 1.836-1.68c0-.996-.768-1.68-1.836-1.68zm4.968-1.332h.996v5.82h-.996v-5.82zm-5.952 6.36h.996v1.368h4.968v-1.368h.984v4.344h-6.948v-4.344zm.996 2.16v1.38h4.968v-1.38h-4.968zm11.48-7.744l-2.812 10.449h-.921l2.813-10.449h.92zm8.768-.776h.996v10.848h-.996v-10.848zm-3.18 1.164h.984c0 3.144-1.416 5.892-5.04 7.668l-.528-.804c3.132-1.512 4.584-3.816 4.584-6.696v-.168zm-4.092 0h4.524v.816h-4.524v-.816zm10.991-.324h4.8v.816h-4.8v-.816zm1.632 2.424h.984v2.712h-.984v-2.712zm2.772-2.424h.984v.576c0 .708 0 1.788-.288 3.216l-.972-.108c.276-1.428.276-2.412.276-3.108v-.576zm2.46-.84h.996v8.172h-.996v-8.172zm.54 3.528h2.004v.828h-2.004v-.828zm-6.396 6.264h7.2v.816h-7.2v-.816zm0-2.376h.984v2.628h-.984v-2.628zm-1.56-.972l-.108-.816c1.932 0 4.596-.048 6.792-.348l.072.72c-2.256.396-4.848.444-6.756.444zm12.836 2.275l-.069.46a9.29 9.29 0 01-.221 1.04c-.097.369-.198.717-.303 1.044a26.97 26.97 0 01-.26.78h-.767l.145-.72c.06-.299.12-.632.179-1.002.063-.366.114-.741.154-1.125l.051-.477h1.091zm5.949-7.639h6.984v.828h-6.984v-.828zm-1.032 7.428h9.804v.828h-9.804v-.828zm3.804-3.876h.996v4.284h-.996v-4.284zm3.84-3.552h.984v1.08c0 1.344 0 2.832-.396 5.028l-.996-.132c.408-2.076.408-3.6.408-4.896v-1.08zm5.808 2.592h.984v2.052h-.984v-2.052zm3.984 0h.984v2.052h-.984v-2.052zm-6.408 1.692h9.804v.804h-9.804v-.804zm4.896 1.62c2.328 0 3.72.684 3.72 1.92 0 1.236-1.392 1.932-3.72 1.932-2.328 0-3.72-.696-3.72-1.932s1.392-1.92 3.72-1.92zm0 .768c-1.692 0-2.712.42-2.712 1.152 0 .744 1.02 1.152 2.712 1.152 1.704 0 2.712-.408 2.712-1.152 0-.732-1.008-1.152-2.712-1.152zm.012-7.56c2.352 0 3.816.756 3.816 2.028 0 1.26-1.464 2.004-3.816 2.004-2.364 0-3.816-.744-3.816-2.004 0-1.272 1.452-2.028 3.816-2.028zm0 .78c-1.728 0-2.796.456-2.796 1.248 0 .78 1.068 1.236 2.796 1.236 1.728 0 2.796-.456 2.796-1.236 0-.792-1.068-1.248-2.796-1.248zm10.487.096h.864v.456c0 1.944-2.064 3.372-4.248 3.744l-.384-.792c1.908-.276 3.768-1.524 3.768-2.952v-.456zm.252 0h.852v.456c0 1.428 1.872 2.676 3.768 2.952l-.372.792c-2.196-.372-4.248-1.8-4.248-3.744v-.456zm-.216 5.64h.984v4.14h-.984v-4.14zm-4.38-.528h9.804v.816h-9.804v-.816zm.912-5.508h7.944v.804h-7.944v-.804zM75.341 371.864h.996v6.264h-.996v-6.264zm.72 2.652h1.884v.828h-1.884v-.828zm-6.54 4.14h6.816v3.912h-6.816v-3.912zm5.844.792h-4.872v2.316h4.872v-2.316zM70.95 372.5c1.632 0 2.832 1.056 2.832 2.568 0 1.5-1.2 2.544-2.832 2.544s-2.832-1.044-2.832-2.544c0-1.512 1.2-2.568 2.832-2.568zm0 .84c-1.08 0-1.86.708-1.86 1.728s.78 1.716 1.86 1.716 1.86-.696 1.86-1.716-.78-1.728-1.86-1.728zm8.494.108h8.808v.816h-8.808v-.816zm-.48 7.176h9.828v.828h-9.828v-.828zm4.404-1.716h.984v2.04h-.984v-2.04zm.48-3.912c2.196 0 3.552.756 3.552 2.064s-1.356 2.064-3.552 2.064c-2.184 0-3.54-.756-3.54-2.064s1.356-2.064 3.54-2.064zm0 .78c-1.572 0-2.544.48-2.544 1.284s.972 1.272 2.544 1.272c1.584 0 2.544-.468 2.544-1.272s-.96-1.284-2.544-1.284zm-.48-3.732h.984v1.908h-.984v-1.908zm9.443 6.288h.996v1.764h-.996v-1.764zm4.56-6.468h.996v10.848h-.996v-10.848zm.672 4.608h2.004v.84h-2.004v-.84zm-8.028 4.176l-.144-.828c1.944 0 4.596-.024 6.84-.348l.084.744c-2.34.42-4.884.432-6.78.432zm.036-7.476h6.492v.804h-6.492v-.804zm3.252 1.44c1.512 0 2.556.792 2.556 2.004 0 1.224-1.044 2.004-2.556 2.004s-2.544-.78-2.544-2.004c0-1.212 1.032-2.004 2.544-2.004zm0 .768c-.972 0-1.608.492-1.608 1.236s.636 1.236 1.608 1.236c.972 0 1.62-.492 1.62-1.236s-.648-1.236-1.62-1.236zm-.492-3.504h.996v1.836h-.996v-1.836zm12.17.684h5.052V377h-5.052v-4.44zm4.092.804h-3.132v2.844h3.132v-2.844zm3.228-1.5h.996v6.228h-.996v-6.228zm-2.94 7.512h.852v.204c0 1.56-1.932 2.808-4.128 3.096l-.336-.768c1.884-.216 3.612-1.248 3.612-2.328v-.204zm.144 0h.864v.204c0 1.044 1.68 2.1 3.564 2.328l-.336.768c-2.208-.3-4.092-1.572-4.092-3.096v-.204zm-3.324-.552h7.368v.78h-7.368v-.78zm3.18-1.044h1.008v1.392h-1.008v-1.392zm9.458-.324h9.804v.816h-9.804v-.816zm4.416-1.62h.984v1.872h-.984v-1.872zm-3.324 3.492h7.5v3.384h-.996v-2.568h-6.504v-.816zm.216-7.212h.984v1.224h5.244v-1.224h.996v4.056h-7.224v-4.056zm.984 2.004v1.26h5.244v-1.26h-5.244zm9.24-.672h8.808v.816h-8.808v-.816zm-.481 7.176h9.829v.828h-9.829v-.828zm4.404-1.716h.984v2.04h-.984v-2.04zm.481-3.912c2.196 0 3.552.756 3.552 2.064s-1.356 2.064-3.552 2.064c-2.184 0-3.54-.756-3.54-2.064s1.356-2.064 3.54-2.064zm0 .78c-1.572 0-2.544.48-2.544 1.284s.972 1.272 2.544 1.272c1.584 0 2.544-.468 2.544-1.272s-.96-1.284-2.544-1.284zm-.481-3.732h.984v1.908h-.984v-1.908zm9.444 6.288h.996v1.764h-.996v-1.764zm4.56-6.468h.996v10.848h-.996v-10.848zm.672 4.608h2.004v.84h-2.004v-.84zm-8.028 4.176l-.144-.828c1.944 0 4.596-.024 6.84-.348l.084.744c-2.34.42-4.884.432-6.78.432zm.036-7.476h6.492v.804h-6.492v-.804zm3.252 1.44c1.512 0 2.556.792 2.556 2.004 0 1.224-1.044 2.004-2.556 2.004s-2.544-.78-2.544-2.004c0-1.212 1.032-2.004 2.544-2.004zm0 .768c-.972 0-1.608.492-1.608 1.236s.636 1.236 1.608 1.236c.972 0 1.62-.492 1.62-1.236s-.648-1.236-1.62-1.236zm-.492-3.504h.996v1.836h-.996v-1.836zm11.606 8.616h9.828v.828h-9.828v-.828zm.852-7.548h8.052v.816h-8.052v-.816zm.024 4.584h8.016v.816H156.2v-.816zm1.668-3.828h.996v3.912h-.996V373.7zm3.696 0h.984v3.912h-.984V373.7zm4.799 6.852h9.828v.828h-9.828v-.828zm4.392-2.328h.996v2.676h-.996v-2.676zm-3.204-5.556h7.428v3.288h-6.408v2.172h-.984v-2.976h6.408v-1.68h-6.444v-.804zm.036 5.04h7.644v.816h-7.644v-.816zm14.087-1.968h2.076v.828h-2.076v-.828zm-2.028-2.856h.78v2.064c0 2.268-.948 4.464-2.532 5.436l-.624-.756c1.488-.876 2.376-2.82 2.376-4.68v-2.064zm.192 0h.768v2.028c0 1.74.816 3.588 2.244 4.452l-.576.78c-1.56-.96-2.436-3.12-2.436-5.232v-2.028zm5.82-1.02h.96v10.848h-.96v-10.848zm-2.196.228h.936v10.08h-.936v-10.08zm9.323.516h.864v.828c0 2.364-2.196 4.2-4.368 4.692l-.444-.828c1.908-.36 3.948-2.016 3.948-3.864v-.828zm.18 0h.864v.828c0 1.86 2.052 3.504 3.948 3.864l-.444.828c-2.16-.492-4.368-2.316-4.368-4.692v-.828zm-4.524 7.824h9.828v.816h-9.828v-.816zm-113.1-41.401h.996v6.264h-.996v-6.264zm.72 2.652h1.884v.828h-1.884v-.828zm-6.54 4.14h6.816v3.912h-6.816v-3.912zm5.844.792h-4.872v2.316h4.872v-2.316zm-4.416-6.948c1.632 0 2.832 1.056 2.832 2.568 0 1.5-1.2 2.544-2.832 2.544s-2.832-1.044-2.832-2.544c0-1.512 1.2-2.568 2.832-2.568zm0 .84c-1.08 0-1.86.708-1.86 1.728s.78 1.716 1.86 1.716 1.86-.696 1.86-1.716-.78-1.728-1.86-1.728zm8.495.108h8.808v.816h-8.808v-.816zm-.48 7.176h9.828v.828h-9.828v-.828zm4.404-1.716h.984v2.04h-.984v-2.04zm.48-3.912c2.196 0 3.552.756 3.552 2.064s-1.356 2.064-3.552 2.064c-2.184 0-3.54-.756-3.54-2.064s1.356-2.064 3.54-2.064zm0 .78c-1.572 0-2.544.48-2.544 1.284s.972 1.272 2.544 1.272c1.584 0 2.544-.468 2.544-1.272s-.96-1.284-2.544-1.284zm-.48-3.732h.984v1.908h-.984v-1.908zm9.443 6.288h.996v1.764h-.996v-1.764zm4.56-6.468h.996v10.848h-.996v-10.848zm.672 4.608h2.004v.84h-2.004v-.84zm-8.028 4.176l-.144-.828c1.944 0 4.596-.024 6.84-.348l.084.744c-2.34.42-4.884.432-6.78.432zm.036-7.476h6.492v.804h-6.492v-.804zm3.252 1.44c1.512 0 2.556.792 2.556 2.004 0 1.224-1.044 2.004-2.556 2.004s-2.544-.78-2.544-2.004c0-1.212 1.032-2.004 2.544-2.004zm0 .768c-.972 0-1.608.492-1.608 1.236s.636 1.236 1.608 1.236c.972 0 1.62-.492 1.62-1.236s-.648-1.236-1.62-1.236zm-.492-3.504h.996v1.836h-.996v-1.836zm11.637.764l-2.812 10.449h-.921l2.813-10.449h.92zm8.744-.788h.996v10.872h-.996v-10.872zm-7.26.924h.984v2.868h3.132v-2.868h.996v7.332h-5.112v-7.332zm.984 3.66v2.856h3.132v-2.856h-3.132zm10.643.348h7.512v.816h-7.512v-.816zm-1.2 3.708h9.828v.828h-9.828v-.828zm4.404-3.204h.984v3.468h-.984v-3.468zm-3.204-4.512h.996v4.368h-.996v-4.368zm14.231 4.488h.996v1.644h-.996v-1.644zm-4.392-.588h9.792v.768h-9.792v-.768zm4.404-4.884h.984v1.32h-.984v-1.32zm-.048 1.416h.876v.168c0 1.704-2.028 2.616-4.428 2.82l-.288-.768c2.136-.132 3.84-.888 3.84-2.052v-.168zm.204 0h.876v.168c0 1.164 1.704 1.92 3.828 2.052l-.288.768c-2.4-.204-4.416-1.116-4.416-2.82v-.168zm-3.564-.396h7.8v.756h-7.8v-.756zm.18 5.616h7.368v2.388h-6.36v1.308h-.984v-2.016h6.36v-.924h-6.384v-.756zm.024 3.408h7.668v.756h-7.668v-.756zm14.474-4.128h7.452v.804h-7.452v-.804zm-1.26 2.784h9.828v.828h-9.828v-.828zm1.26-7.704h7.332v.816h-6.324v4.356h-1.008v-5.172zm.684 2.424h6.42v.792h-6.42v-.792zm9.443 4.08h.72c1.32 0 2.52-.048 3.984-.3l.084.828c-1.5.264-2.724.3-4.068.3h-.72v-.828zm-.024-6.252h4.068v3.816h-3.072v2.748h-.972v-3.564h3.072v-2.184h-3.096v-.816zm7.92-1.176h.96v10.848h-.96v-10.848zm-1.836 4.284h2.088v.816h-2.088v-.816zm-.624-4.044h.936v10.056h-.936v-10.056zm5.735.636h5.82v.816h-5.82v-.816zm-.18 5.052l-.12-.84c1.896 0 4.488-.024 6.636-.288l.084.744c-2.208.348-4.74.384-6.6.384zm1.248-4.476h.96v3.924h-.96v-3.924zm2.712 0h.972v3.924h-.972v-3.924zm-2.616 5.664h7.248v3.732h-1.008v-2.916h-6.24v-.816zm6.24-7.116h1.008v6.576h-1.008v-6.576zM672.912 183.24h.8v5.6h-.8v-5.6zm-1.63.16h.79v5.41h-.79v-5.41zm-1.58 4.32h1.97v.59h-1.97v-.59zm-1.6-.65h.79v1.74h-.79v-1.74zm-1.97.33l-.09-.65c1.24 0 3.26-.02 4.76-.26l.06.57c-1.55.32-3.48.34-4.73.34zm1.5 1.77h.82v.84h4.44v-.84h.82v2.99h-6.08v-2.99zm.82 1.48v.85h4.44v-.85h-4.44zm.03-7.1c1.17 0 1.96.52 1.96 1.34 0 .83-.79 1.35-1.96 1.35-1.18 0-1.97-.52-1.97-1.35 0-.82.79-1.34 1.97-1.34zm0 .59c-.74 0-1.22.29-1.22.75 0 .47.48.75 1.22.75.73 0 1.21-.28 1.21-.75 0-.46-.48-.75-1.21-.75zm9.029-.12h.68v1.62c0 2-1.08 3.95-2.51 4.71l-.51-.66c1.31-.66 2.34-2.4 2.34-4.05v-1.62zm.15 0h.67v1.62c0 1.59 1.01 3.24 2.29 3.88l-.51.66c-1.4-.75-2.45-2.6-2.45-4.54v-1.62zm3.75-.78h.84v9.04h-.84v-9.04zm.64 3.66h1.68v.7h-1.68v-.7zm9.01-3.67h.83v9.06h-.83v-9.06zm-3.94.7c1.34 0 2.3 1.23 2.3 3.15 0 1.93-.96 3.16-2.3 3.16-1.33 0-2.29-1.23-2.29-3.16 0-1.92.96-3.15 2.29-3.15zm0 .75c-.88 0-1.5.94-1.5 2.4 0 1.47.62 2.43 1.5 2.43.89 0 1.5-.96 1.5-2.43 0-1.46-.61-2.4-1.5-2.4zm7.629 3.43h6.21v.67h-6.21v-.67zm-1.05 2.32h8.19v.69h-8.19v-.69zm1.05-6.42h6.11v.68h-5.27v3.63h-.84v-4.31zm.57 2.02h5.35v.66h-5.35v-.66zm-30.154 9.79h4.21v3.7h-4.21v-3.7zm3.41.67h-2.61v2.37h2.61v-2.37zm2.69-1.25h.83v5.19h-.83v-5.19zm-2.45 6.26h.71v.17c0 1.3-1.61 2.34-3.44 2.58l-.28-.64c1.57-.18 3.01-1.04 3.01-1.94v-.17zm.12 0h.72v.17c0 .87 1.4 1.75 2.97 1.94l-.28.64c-1.84-.25-3.41-1.31-3.41-2.58v-.17zm-2.77-.46h6.14v.65h-6.14v-.65zm2.65-.87h.84v1.16h-.84v-1.16zm12.402-1.87h2.52v.68h-2.52v-.68zm-2.18-2.28h.68v1.61c0 2.03-1.07 3.97-2.5 4.74l-.53-.66c1.33-.66 2.35-2.4 2.35-4.08v-1.61zm.16 0h.67v1.61c0 1.65 1.02 3.29 2.33 3.91l-.49.67c-1.46-.74-2.51-2.6-2.51-4.58v-1.61zm4.13-.79h.82v9.06h-.82v-9.06zm9.139 0h.83v9.06h-.83v-9.06zm-6.05.77h.82v2.39h2.61V196h.83v6.11h-4.26V196zm.82 3.05v2.38h2.61v-2.38h-2.61zm11.489-3.19h.72v.69c0 1.97-1.83 3.5-3.64 3.91l-.37-.69c1.59-.3 3.29-1.68 3.29-3.22v-.69zm.15 0h.72v.69c0 1.55 1.71 2.92 3.29 3.22l-.37.69c-1.8-.41-3.64-1.93-3.64-3.91v-.69zm-3.77 6.52h8.19v.68h-8.19v-.68zM54.911 172.02h.68v1.62c0 2-1.08 3.95-2.51 4.71l-.51-.66c1.31-.66 2.34-2.4 2.34-4.05v-1.62zm.15 0h.67v1.62c0 1.59 1.01 3.24 2.29 3.88l-.51.66c-1.4-.75-2.45-2.6-2.45-4.54v-1.62zm3.75-.78h.84v9.04h-.84v-9.04zm.64 3.66h1.68v.7h-1.68v-.7zm4.459-.6h.82v1.71h-.82v-1.71zm3.32 0h.82v1.71h-.82v-1.71zm-5.34 1.41h8.17v.67h-8.17v-.67zm4.08 1.35c1.94 0 3.1.57 3.1 1.6 0 1.03-1.16 1.61-3.1 1.61-1.94 0-3.1-.58-3.1-1.61 0-1.03 1.16-1.6 3.1-1.6zm0 .64c-1.41 0-2.26.35-2.26.96 0 .62.85.96 2.26.96 1.42 0 2.26-.34 2.26-.96 0-.61-.84-.96-2.26-.96zm.01-6.3c1.96 0 3.18.63 3.18 1.69 0 1.05-1.22 1.67-3.18 1.67-1.97 0-3.18-.62-3.18-1.67 0-1.06 1.21-1.69 3.18-1.69zm0 .65c-1.44 0-2.33.38-2.33 1.04 0 .65.89 1.03 2.33 1.03s2.33-.38 2.33-1.03c0-.66-.89-1.04-2.33-1.04zm7.35.48h.66V174c0 1.88-1.15 3.82-2.56 4.54l-.48-.66c1.29-.63 2.38-2.35 2.38-3.88v-1.47zm.15 0h.66V174c0 1.43 1.02 3.04 2.33 3.66l-.47.66c-1.43-.71-2.52-2.53-2.52-4.32v-1.47zm-2.21-.37h4.87v.7h-4.87v-.7zm5.94-.92h.84v9.04h-.84v-9.04zm.64 3.65h1.68v.7h-1.68v-.7zm-20.111 9.32h.68v.73c0 1.66-1 3.05-2.52 3.6l-.42-.66c1.36-.48 2.26-1.65 2.26-2.94v-.73zm.15 0h.68v.72c0 1.18.86 2.24 2.19 2.68l-.4.65c-1.51-.5-2.47-1.79-2.47-3.33v-.72zm-2.16-.3h4.83v.68h-4.83v-.68zm5.97-.67h.83v5.45h-.83v-5.45zm.6 2.29h1.57v.7h-1.57v-.7zm-2.65 3.4c1.84 0 2.97.61 2.97 1.66 0 1.06-1.13 1.67-2.97 1.67-1.84 0-2.97-.61-2.97-1.67 0-1.05 1.13-1.66 2.97-1.66zm0 .67c-1.34 0-2.16.36-2.16.99 0 .64.82 1.02 2.16 1.02 1.34 0 2.16-.38 2.16-1.02 0-.63-.82-.99-2.16-.99zm11.639-6.36h.83v9.04h-.83v-9.04zm-4.07 2.15h.67v.77c0 1.93-1.09 3.68-2.54 4.38l-.47-.64c1.34-.62 2.34-2.16 2.34-3.74v-.77zm.16 0h.66v.77c0 1.51 1.03 2.98 2.38 3.57l-.47.65c-1.46-.66-2.57-2.35-2.57-4.22v-.77zm-2.25-.58h4.98v.67h-4.98v-.67zm2.09-1.41h.83v1.78h-.83v-1.78zm9.537.487l-2.344 8.707h-.767l2.344-8.707h.767zm-19.893 12.341l2.159 6.122h.085l2.159-6.122h.923l-2.67 7.272h-.91l-2.67-7.272h.924zm6.459 7.272v-7.272h2.457c.571 0 1.037.102 1.4.308.364.204.634.48.81.828.174.348.262.736.262 1.165 0 .428-.088.818-.263 1.168-.172.35-.44.63-.802.838-.362.206-.826.309-1.392.309H64.03v-.781h1.733c.39 0 .705-.068.941-.203.237-.135.409-.317.515-.547.11-.232.164-.493.164-.784 0-.292-.055-.552-.164-.782a1.166 1.166 0 00-.518-.539c-.24-.133-.556-.199-.952-.199h-1.548v6.491h-.88zm12.115-7.272v7.272h-.853l-3.962-5.71h-.072v5.71h-.88v-7.272h.852l3.977 5.724h.071v-5.724h.867zM44.542 207.66h5.82v.67h-5.82v-.67zm5.28 0h.81v.7c0 .75 0 1.64-.26 2.83l-.82-.09c.27-1.17.27-2 .27-2.74v-.7zm.23 1.53v.59l-5.63.25-.11-.66 5.74-.18zm-6.55 1.75h8.16v.66h-8.16v-.66zm.95 1.52h6.25v2.11h-5.41v1.22h-.82v-1.84h5.41v-.85h-5.43v-.64zm.02 3.05h6.54v.65h-6.54v-.65zm14.349-8.28h.83v9.06h-.83v-9.06zm.63 3.6h1.68v.7h-1.68v-.7zm-6.39 2.59h.72c1.7 0 2.88-.06 4.25-.32l.09.69c-1.41.25-2.61.32-4.34.32h-.72v-.69zm-.02-5.34h4.09v3.24h-3.25v2.38h-.82v-3.06h3.25v-1.88h-3.27v-.68zm15.419-.85h.83v9.06h-.83v-9.06zm-3.94.7c1.34 0 2.3 1.23 2.3 3.15 0 1.93-.96 3.16-2.3 3.16-1.33 0-2.29-1.23-2.29-3.16 0-1.92.96-3.15 2.29-3.15zm0 .75c-.88 0-1.5.94-1.5 2.4 0 1.47.62 2.43 1.5 2.43.89 0 1.5-.96 1.5-2.43 0-1.46-.61-2.4-1.5-2.4zm11.08 1.07h2.48v.67H75.6v-.67zm2.1-2.5h.83v6.65h-.83v-6.65zm-4.94 8.15h6.02v.68h-6.02v-.68zm0-2.17h.83v2.46h-.83v-2.46zm.8-5.41c1.33 0 2.33.93 2.33 2.24s-1 2.24-2.33 2.24-2.33-.93-2.33-2.24 1-2.24 2.33-2.24zm0 .73c-.88 0-1.53.62-1.53 1.51s.65 1.51 1.53 1.51c.87 0 1.53-.62 1.53-1.51s-.66-1.51-1.53-1.51zm7.789 3.56h6.21v.67h-6.21v-.67zm-1.05 2.32h8.19v.69h-8.19v-.69zm1.05-6.42h6.11v.68h-5.27v3.63h-.84v-4.31zm.57 2.02h5.35v.66h-5.35v-.66zm437.809-60.442h.96v10.848h-.96v-10.848zm-1.824 4.416h2.088v.816h-2.088v-.816zm-.636-4.176h.936v10.056h-.936v-10.056zm-5.256 1.068h.996v6.264h-.996v-6.264zm0 5.868h.696c1.116 0 2.364-.072 3.78-.348l.108.864c-1.476.288-2.724.348-3.888.348h-.696v-.864zm15.411-5.991v8.727h-1.056v-8.727h1.056zm2.119 8.727v-8.727h2.949c.685 0 1.245.123 1.679.37.438.245.762.576.972.993.21.418.315.884.315 1.398 0 .514-.105.982-.315 1.402-.208.42-.529.756-.963 1.006-.435.247-.992.37-1.671.37h-2.113v-.937h2.079c.469 0 .845-.081 1.129-.243.285-.162.491-.381.618-.656a2.19 2.19 0 00.196-.942c0-.349-.065-.662-.196-.938a1.394 1.394 0 00-.622-.647c-.287-.159-.667-.239-1.142-.239h-1.858v7.79h-1.057zm-12.138 6.156h.864v.456c0 1.944-2.064 3.372-4.248 3.744l-.384-.792c1.908-.276 3.768-1.524 3.768-2.952v-.456zm.252 0h.852v.456c0 1.428 1.872 2.676 3.768 2.952l-.372.792c-2.196-.372-4.248-1.8-4.248-3.744v-.456zm-.216 5.64h.984v4.14h-.984v-4.14zm-4.38-.528h9.804v.816h-9.804v-.816zm.912-5.508h7.944v.804h-7.944v-.804zm10.127 7.944h9.828v.828h-9.828v-.828zm4.368-2.628h.984v2.904h-.984v-2.904zm-.024-5.268h.864v.84c0 2.316-2.22 4.104-4.404 4.56l-.42-.828c1.908-.348 3.96-1.944 3.96-3.732v-.84zm.18 0h.864v.84c0 1.8 2.064 3.384 3.972 3.732l-.432.828c-2.184-.456-4.404-2.244-4.404-4.56v-.84zm53.911-21.535l2.591 7.347h.102l2.591-7.347h1.108l-3.204 8.727h-1.091l-3.205-8.727h1.108zm7.752 8.727v-8.727h2.948c.685 0 1.245.124 1.679.371.438.244.762.575.972.993.21.417.315.883.315 1.397 0 .515-.105.982-.315 1.402a2.337 2.337 0 01-.963 1.006c-.435.247-.992.371-1.671.371h-2.113v-.938h2.079c.469 0 .845-.081 1.13-.243.284-.162.49-.38.617-.656.131-.278.197-.592.197-.942 0-.349-.066-.662-.197-.937a1.391 1.391 0 00-.622-.648c-.287-.159-.667-.239-1.142-.239h-1.858v7.79h-1.056zm14.537-8.727v8.727H603.8l-4.755-6.852h-.085v6.852h-1.057v-8.727h1.022l4.773 6.869h.085v-6.869h1.04zm-21.869 17.487h3.024v.816h-3.024v-.816zm-2.616-2.736h.816v1.932c0 2.436-1.284 4.764-3 5.688l-.636-.792c1.596-.792 2.82-2.88 2.82-4.896v-1.932zm.192 0h.804v1.932c0 1.98 1.224 3.948 2.796 4.692l-.588.804c-1.752-.888-3.012-3.12-3.012-5.496v-1.932zm4.956-.948h.984v10.872h-.984v-10.872zm11.039 0h.984v10.872h-.984v-10.872zm-2.868 4.032h3.156v.816h-3.156v-.816zm-4.644-3.168h.984v2.82h3.012v-2.82h.984v7.284h-4.98v-7.284zm.984 3.612v2.844h3.012v-2.844h-3.012zm13.139-3.684c1.692 0 2.904 1.044 2.904 2.556 0 1.524-1.212 2.568-2.904 2.568s-2.916-1.044-2.916-2.568c0-1.512 1.224-2.556 2.916-2.556zm0 .864c-1.128 0-1.944.684-1.944 1.692s.816 1.704 1.944 1.704c1.116 0 1.932-.696 1.932-1.704s-.816-1.692-1.932-1.692zm4.32-1.656h.996v10.872h-.996v-10.872zm-7.644 8.496l-.144-.828c1.98 0 4.716-.012 7.08-.384l.084.732c-2.436.468-5.088.48-7.02.48zm-9.595 7.701v8.727h-1.056v-8.727h1.056zm2.119 8.727v-8.727h2.949c.685 0 1.244.124 1.679.371.438.244.761.575.972.993.21.417.315.883.315 1.397 0 .515-.105.982-.315 1.402a2.349 2.349 0 01-.963 1.006c-.435.247-.992.371-1.671.371h-2.113v-.938h2.079c.469 0 .845-.081 1.129-.243.284-.162.49-.38.618-.656.131-.278.196-.592.196-.942 0-.349-.065-.662-.196-.937a1.396 1.396 0 00-.622-.648c-.287-.159-.668-.239-1.142-.239h-1.858v7.79h-1.057zm-228.684-28.545V168.5h-1.761v-14.545h1.761zm11.486 3.636a2.229 2.229 0 00-1.037-1.676c-.606-.398-1.349-.597-2.23-.597-.644 0-1.207.105-1.69.313-.478.208-.853.495-1.122.859a2.056 2.056 0 00-.398 1.243c0 .388.092.722.277 1.002.189.274.431.504.724.688.294.18.602.33.924.448.322.114.617.206.887.277l1.478.398c.378.099.8.236 1.264.412a5.82 5.82 0 011.342.717c.431.298.786.682 1.066 1.15.279.469.419 1.044.419 1.726 0 .786-.206 1.497-.618 2.131-.408.634-1.004 1.139-1.79 1.513-.781.374-1.731.561-2.848.561-1.042 0-1.944-.168-2.706-.504-.758-.337-1.354-.805-1.79-1.407-.431-.601-.675-1.299-.731-2.095h1.818c.047.549.232 1.004.554 1.364.326.355.738.62 1.236.795a4.981 4.981 0 001.619.256c.672 0 1.276-.109 1.811-.327.535-.222.959-.53 1.271-.923.313-.398.469-.862.469-1.392 0-.483-.135-.876-.405-1.179-.27-.303-.625-.549-1.065-.739a11.257 11.257 0 00-1.428-.497l-1.789-.511c-1.137-.327-2.036-.793-2.699-1.399-.663-.606-.995-1.4-.995-2.38 0-.814.22-1.524.661-2.13.445-.611 1.041-1.085 1.79-1.421.752-.341 1.593-.511 2.521-.511.937 0 1.771.168 2.5.504.729.332 1.307.786 1.733 1.364.431.577.658 1.233.682 1.967h-1.705zm4.8 10.909v-14.545h4.914c1.141 0 2.074.206 2.799.618.729.407 1.269.958 1.619 1.654.35.696.525 1.473.525 2.33s-.175 1.636-.525 2.337c-.346.7-.881 1.259-1.605 1.676-.725.412-1.653.618-2.784.618h-3.523v-1.563h3.466c.781 0 1.408-.135 1.882-.405.473-.27.817-.634 1.03-1.093.218-.464.326-.988.326-1.57 0-.582-.108-1.103-.326-1.563a2.33 2.33 0 00-1.037-1.079c-.478-.265-1.113-.398-1.904-.398h-3.096V168.5h-1.761zm-76.477-18.332h.984v3.252h-.984v-3.252zm4.008 0h.996v3.252h-.996v-3.252zm-6.408 3.06h9.828v.828h-9.828v-.828zm4.896-7.956c2.292 0 3.936 1.092 3.936 2.796 0 1.692-1.644 2.784-3.936 2.784-2.304 0-3.948-1.092-3.948-2.784 0-1.704 1.644-2.796 3.948-2.796zm0 .792c-1.74 0-2.988.792-2.988 2.004 0 1.2 1.248 1.992 2.988 1.992s2.976-.792 2.976-1.992c0-1.212-1.236-2.004-2.976-2.004zm8.843.372h.816v.468c0 1.884-1.2 3.468-3.012 4.08l-.48-.78c1.596-.516 2.676-1.836 2.676-3.3v-.468zm.18 0h.816v.468c0 1.344 1.116 2.556 2.712 3.024l-.456.78c-1.824-.564-3.072-2.028-3.072-3.804v-.468zm-2.58-.54h5.784v.804H312.4v-.804zm2.4-1.356h.996v1.644h-.996v-1.644zm3.06 3.132h2.448v.828h-2.448v-.828zm2.16-3.084h.996v6.564h-.996v-6.564zm-2.568 6.852c2.244 0 3.612.732 3.612 1.992 0 1.248-1.368 1.98-3.612 1.98-2.256 0-3.624-.732-3.624-1.98 0-1.26 1.368-1.992 3.624-1.992zm0 .78c-1.644 0-2.628.444-2.628 1.212 0 .756.984 1.2 2.628 1.2 1.632 0 2.628-.444 2.628-1.2 0-.768-.996-1.212-2.628-1.212zm113.009-2.052h.984v3.252h-.984v-3.252zm4.008 0h.996v3.252h-.996v-3.252zm-6.408 3.06h9.828v.828h-9.828v-.828zm4.896-7.956c2.292 0 3.936 1.092 3.936 2.796 0 1.692-1.644 2.784-3.936 2.784-2.304 0-3.948-1.092-3.948-2.784 0-1.704 1.644-2.796 3.948-2.796zm0 .792c-1.74 0-2.988.792-2.988 2.004 0 1.2 1.248 1.992 2.988 1.992s2.976-.792 2.976-1.992c0-1.212-1.236-2.004-2.976-2.004zm8.843.372h.816v.468c0 1.884-1.2 3.468-3.012 4.08l-.48-.78c1.596-.516 2.676-1.836 2.676-3.3v-.468zm.18 0h.816v.468c0 1.344 1.116 2.556 2.712 3.024l-.456.78c-1.824-.564-3.072-2.028-3.072-3.804v-.468zm-2.58-.54h5.784v.804H439.4v-.804zm2.4-1.356h.996v1.644h-.996v-1.644zm3.06 3.132h2.448v.828h-2.448v-.828zm2.16-3.084h.996v6.564h-.996v-6.564zm-2.568 6.852c2.244 0 3.612.732 3.612 1.992 0 1.248-1.368 1.98-3.612 1.98-2.256 0-3.624-.732-3.624-1.98 0-1.26 1.368-1.992 3.624-1.992zm0 .78c-1.644 0-2.628.444-2.628 1.212 0 .756.984 1.2 2.628 1.2 1.632 0 2.628-.444 2.628-1.2 0-.768-.996-1.212-2.628-1.212zm-143.403 22.636h9.804v.816h-9.804v-.816zm4.896 1.704c2.328 0 3.72.696 3.72 1.932 0 1.248-1.392 1.944-3.72 1.944-2.328 0-3.72-.696-3.72-1.944 0-1.236 1.392-1.932 3.72-1.932zm0 .78c-1.692 0-2.712.42-2.712 1.152 0 .756 1.02 1.164 2.712 1.164 1.704 0 2.712-.408 2.712-1.164 0-.732-1.008-1.152-2.712-1.152zm.012-7.488c2.34 0 3.816.78 3.816 2.076 0 1.284-1.476 2.064-3.816 2.064-2.352 0-3.816-.78-3.816-2.064 0-1.296 1.464-2.076 3.816-2.076zm0 .792c-1.728 0-2.796.48-2.796 1.284s1.068 1.272 2.796 1.272c1.716 0 2.796-.468 2.796-1.272s-1.08-1.284-2.796-1.284zm13.559-1.056h.996v5.784h-.996v-5.784zm.72 2.532h1.884v.828h-1.884v-.828zm-7.644 2.064h.84c2.232 0 3.492-.072 4.944-.36l.108.804c-1.488.312-2.772.384-5.052.384h-.84v-.828zm0-3.888h4.776v.816h-3.792v3.636h-.984v-4.452zm1.08 5.664h.984v1.332h4.872v-1.332h.984v4.296h-6.84v-4.296zm.984 2.124v1.356h4.872v-1.356h-4.872zm113.393-3.228h9.804v.816h-9.804v-.816zm4.896 1.704c2.328 0 3.72.696 3.72 1.932 0 1.248-1.392 1.944-3.72 1.944-2.328 0-3.72-.696-3.72-1.944 0-1.236 1.392-1.932 3.72-1.932zm0 .78c-1.692 0-2.712.42-2.712 1.152 0 .756 1.02 1.164 2.712 1.164 1.704 0 2.712-.408 2.712-1.164 0-.732-1.008-1.152-2.712-1.152zm.012-7.488c2.34 0 3.816.78 3.816 2.076 0 1.284-1.476 2.064-3.816 2.064-2.352 0-3.816-.78-3.816-2.064 0-1.296 1.464-2.076 3.816-2.076zm0 .792c-1.728 0-2.796.48-2.796 1.284s1.068 1.272 2.796 1.272c1.716 0 2.796-.468 2.796-1.272s-1.08-1.284-2.796-1.284zm13.559-1.056h.996v5.784h-.996v-5.784zm.72 2.532h1.884v.828h-1.884v-.828zm-7.644 2.064h.84c2.232 0 3.492-.072 4.944-.36l.108.804c-1.488.312-2.772.384-5.052.384h-.84v-.828zm0-3.888h4.776v.816h-3.792v3.636h-.984v-4.452zm1.08 5.664h.984v1.332h4.872v-1.332h.984v4.296h-6.84v-4.296zm.984 2.124v1.356h4.872v-1.356h-4.872z" fill="#000"/></g><defs><clipPath id="clip0_5240_164626"><path fill="#fff" transform="translate(.5 .5)" d="M0 0h750v450H0z"/></clipPath><clipPath id="clip1_5240_164626"><path fill="#fff" transform="translate(665.986 104.682)" d="M0 0h35.729v35.729H0z"/></clipPath><clipPath id="clip2_5240_164626"><path fill="#fff" transform="translate(48 106.5)" d="M0 0h36v35H0z"/></clipPath></defs></svg>
